# xmcd CD database file generated by OrangeCD 6.5
#
# Track frame offsets:
#	150
#	12239
#	26137
#	39558
#	54250
#	72972
#	87192
#	98349
#	113292
#	125956
#
# Disc length: 1892 seconds
#
# Revision: 0
# Processed by: cddbd v1.5.2PL0 Copyright (c) Steve Scherf et al.
# Submitted via: OrangeCD 6.5
#
DISCID=7507620a
DTITLE=Guy Clark - Guy Clark/The South Coast Of Texas/Better Days
DYEAR=2015
DGENRE=Outlaw Country
TTITLE0=Blowin' Like A Bandit
TTITLE1=Better Days
TTITLE2=Homegrown Tomatoes
TTITLE3=Supply and Demand
TTITLE4=The Randall Knife
TTITLE5=The Carpenter
TTITLE6=Uncertain Texas
TTITLE7=No Deal
TTITLE8=Tears
TTITLE9=Fool In The Mirror
EXTD=
EXTT0=
EXTT1=
EXTT2=
EXTT3=
EXTT4=
EXTT5=
EXTT6=
EXTT7=
EXTT8=
EXTT9=
PLAYORDER=
